# xmcd
#
# Track frame offsets:
#	150
#	18072
#	36164
#	53408
#	71447
#	89450
#	112409
#	129274
#	144146
#	160587
#	176422
#
# Disc length: 2550 seconds
#
# Revision: 0
# Processed by: cddbd v1.5.2PL0 Copyright (c) Steve Scherf et al.
# Submitted via: dBpowerAMP V4.0
#
DISCID=8109f40b
DTITLE=ณัฐฐา พรหมมินทร์ - สาวงาม...กำเมือง...เรืองเลา
DYEAR=2008
DGENRE=Country
TTITLE0=สาวงาม...กำเมือง...เรืองเลา
TTITLE1=กึ๊ดเติงหา
TTITLE2=กระทงใบตอง
TTITLE3=สี่ล้อแดง
TTITLE4=ไปไกล๋ ๆ
TTITLE5=ปิงเอยแม่ข้า
TTITLE6=ลมรำพัน
TTITLE7=รัก
TTITLE8=พบเธอ
TTITLE9=กระดาษแผ่นหนึ่ง
TTITLE10=ง่าย ๆ
EXTD=
EXTT0=
EXTT1=
EXTT2=
EXTT3=
EXTT4=
EXTT5=
EXTT6=
EXTT7=
EXTT8=
EXTT9=
EXTT10=
PLAYORDER=
